<svg data-v-423bf9ae="" xmlns="http://www.w3.org/2000/svg" viewBox="0 0 2268.3428083147323 193" class="fontAboveSlogan"><!----><!----><!----><g data-v-423bf9ae="" id="40e0ddf9-5171-493a-85d3-1667cd066fa0" fill="#ffffff" transform="matrix(9.84413410522274,0,0,9.84413410522274,914.2290131393178,-30.151492066298474)"><path d="M0.59 7.84C0.59 10.93 2.77 12.25 5.24 12.59C5.35 12.60 5.39 12.60 5.39 12.61C5.39 12.63 5.38 12.64 5.29 12.68C4.86 12.89 3.91 13.30 3.56 13.40C3.26 13.47 3.01 13.48 2.77 13.48C2.67 13.48 2.56 13.47 2.46 13.47C2.23 13.47 2.07 13.51 2.07 13.72C2.07 13.90 2.39 14.35 2.62 14.35C2.76 14.35 3.22 14.10 3.56 14.10C4.28 14.10 6.51 15.26 8.44 15.26C9.48 15.26 10.68 14.38 10.68 14.14C10.68 14.06 10.50 13.86 10.44 13.86C10.32 13.86 9.90 14.29 8.95 14.29C8.34 14.29 7.39 13.93 6.44 13.72C5.87 13.59 5.04 13.57 4.59 13.54C4.35 13.52 4.48 13.48 4.59 13.43C5.21 13.15 6.59 12.54 6.93 12.45C8.95 11.87 10.37 10.11 10.37 7.84C10.37 5.10 8.29 3.11 5.49 3.11C2.90 3.11 0.59 4.79 0.59 7.84ZM1.89 7.62C1.89 5.49 3.37 3.58 5.35 3.58C7.60 3.58 8.92 5.82 8.92 7.95C8.92 11.06 6.48 12.31 6.08 12.31C5.77 12.31 3.85 11.80 3.07 10.91C2.37 10.11 1.89 8.89 1.89 7.62ZM11.12 7.60C11.12 7.66 11.16 7.67 11.23 7.67C11.28 7.67 11.87 7.66 11.91 7.66C12.01 7.66 12.04 8.05 12.04 8.69L12.04 10.89C12.04 11.83 12.25 12.80 13.61 12.80C14.64 12.80 15.83 12.15 15.86 12.15C15.90 12.15 15.88 12.87 15.96 12.87C16.02 12.87 17.15 12.70 17.63 12.63C17.81 12.60 17.81 12.59 17.81 12.38C17.81 12.29 17.81 12.19 17.72 12.19C17.68 12.19 17.14 12.28 17.11 12.28C16.93 12.28 16.88 12.19 16.88 11.49C16.88 10.63 16.90 7.28 16.90 7.28C16.90 7.20 16.91 7.15 16.76 7.15C16.69 7.15 15.85 7.20 15.13 7.22C15.01 7.22 14.97 7.25 14.95 7.35C14.94 7.39 14.92 7.56 14.92 7.60C14.92 7.64 14.98 7.64 15.04 7.64C15.08 7.64 15.62 7.62 15.74 7.62C15.82 7.62 15.85 9.87 15.85 10.18L15.85 11.83C15.85 11.93 15.09 12.01 14.62 12.01C13.79 12.01 13.10 11.86 13.10 11.12L13.10 7.31C13.10 7.22 13.10 7.18 13.02 7.18C12.95 7.18 11.73 7.22 11.42 7.24C11.26 7.25 11.21 7.24 11.17 7.36C11.14 7.43 11.12 7.55 11.12 7.60ZM18.55 11.61C18.55 12.35 19.08 12.84 19.96 12.84C20.58 12.84 21.29 12.45 21.70 12.19C21.80 12.14 21.81 12.11 21.85 12.24C21.94 12.46 21.99 12.88 22.44 12.88C22.54 12.88 22.78 12.74 23.03 12.56C23.37 12.31 23.74 12.04 23.74 12.01C23.74 11.93 23.59 11.73 23.52 11.73C23.49 11.73 23.07 12.08 22.96 12.08C22.92 12.08 22.71 12.01 22.71 11.70C22.71 11.40 22.79 9.56 22.79 8.85C22.79 7.73 22.36 6.97 20.92 6.97C19.99 6.97 18.75 7.67 18.75 8.85C18.75 9.00 18.80 9.11 18.87 9.11C18.94 9.11 19.45 8.86 19.68 8.69C19.77 8.64 19.78 8.50 19.78 8.41C19.78 7.84 19.81 7.63 20.19 7.48C20.31 7.42 20.48 7.39 20.62 7.39C21.78 7.39 21.80 8.32 21.80 9.31C21.80 9.44 21.80 9.48 21.73 9.49C20.34 9.73 18.55 10.32 18.55 11.61ZM19.61 11.21C19.61 10.58 20.24 10.22 20.90 10.01C21.29 9.88 21.71 9.80 21.76 9.80C21.78 9.80 21.80 9.81 21.80 9.91L21.80 11.75C21.80 11.84 21.01 12.14 20.48 12.14C19.92 12.14 19.61 11.65 19.61 11.21ZM24.19 3.58C24.19 3.65 24.21 3.65 24.26 3.65C24.32 3.65 24.91 3.60 24.99 3.60C25.06 3.60 25.12 3.57 25.14 3.82C25.26 5.07 25.30 10.37 25.30 11.06C25.30 11.44 25.30 12.21 25.23 12.21L24.51 12.21C24.36 12.21 24.35 12.29 24.35 12.43C24.35 12.59 24.36 12.67 24.53 12.67C24.95 12.67 25.52 12.64 25.87 12.64C26.28 12.64 26.77 12.67 27.03 12.67C27.20 12.67 27.20 12.60 27.20 12.43C27.20 12.28 27.20 12.21 27.03 12.21L26.43 12.21C26.38 12.21 26.36 12.05 26.36 11.70C26.36 8.89 26.29 7.62 26.28 3.32C26.28 3.16 26.28 3.07 26.14 3.07C26.05 3.07 24.96 3.15 24.40 3.19C24.29 3.21 24.26 3.19 24.23 3.32C24.21 3.42 24.19 3.57 24.19 3.58ZM27.85 7.64C27.85 7.70 27.92 7.70 27.97 7.70C28.03 7.70 28.60 7.67 28.64 7.67C28.74 7.67 28.80 7.66 28.81 7.85C28.85 8.88 28.87 9.87 28.87 10.85C28.87 11.14 28.87 12.21 28.83 12.21L28.13 12.21C27.93 12.21 27.92 12.29 27.92 12.43C27.92 12.59 27.92 12.67 28.08 12.67C28.35 12.67 29.02 12.64 29.37 12.64C29.72 12.64 30.31 12.67 30.58 12.67C30.73 12.67 30.74 12.57 30.74 12.43C30.74 12.28 30.74 12.21 30.58 12.21L29.97 12.21C29.90 12.21 29.90 10.04 29.90 9.70L29.90 7.32C29.90 7.24 29.90 7.20 29.76 7.20C29.69 7.20 28.95 7.24 28.18 7.27C28.01 7.27 27.97 7.27 27.92 7.41C27.87 7.52 27.85 7.60 27.85 7.64ZM28.60 4.86C28.60 5.28 28.91 5.47 29.22 5.47C29.62 5.47 30.11 5.15 30.11 4.65C30.11 4.21 29.79 4.05 29.48 4.05C29.13 4.05 28.60 4.33 28.60 4.86ZM31.43 10.04C31.43 11.58 32.59 12.85 34.12 12.85C35.88 12.85 36.92 11.58 36.92 9.84C36.92 8.29 35.90 7.01 34.34 7.01C32.59 7.01 31.43 8.37 31.43 10.04ZM32.51 10.23C32.51 8.69 32.90 7.46 34.17 7.46C35.31 7.46 35.83 8.74 35.83 9.74C35.83 10.92 35.59 12.40 34.12 12.40C33.07 12.40 32.51 11.27 32.51 10.23ZM37.58 7.73C37.58 7.77 37.59 7.80 37.65 7.80C37.70 7.80 38.39 7.74 38.43 7.74C38.51 7.74 38.57 7.70 38.58 7.90C38.61 8.33 38.61 8.81 38.61 9.28C38.61 9.73 38.58 12.21 38.50 12.21L37.87 12.21C37.70 12.21 37.69 12.29 37.69 12.43C37.69 12.59 37.69 12.67 37.87 12.67C38.29 12.67 38.79 12.64 39.14 12.64C39.55 12.64 40.05 12.67 40.32 12.67C40.50 12.67 40.50 12.56 40.50 12.43C40.50 12.29 40.50 12.21 40.31 12.21L39.77 12.21C39.65 12.21 39.63 12.21 39.63 11.98C39.63 10.84 39.65 9.67 39.65 8.53C39.65 8.41 39.66 8.36 39.87 8.25C40.15 8.11 40.56 7.85 41.10 7.85C42.15 7.85 42.41 8.62 42.41 9.63C42.41 11.03 42.38 12.21 42.32 12.21L41.72 12.21C41.57 12.21 41.50 12.26 41.50 12.45C41.50 12.61 41.50 12.67 41.71 12.67C42.13 12.67 42.57 12.64 42.92 12.64C43.33 12.64 43.71 12.67 43.97 12.67C44.17 12.67 44.18 12.56 44.18 12.43C44.18 12.25 44.13 12.21 43.95 12.21L43.53 12.21C43.41 12.21 43.41 12.21 43.41 12.08C43.41 11.87 43.48 10.47 43.48 9.70C43.48 8.33 43.23 7.18 41.58 7.18C40.71 7.18 40.19 7.63 39.77 7.90C39.68 7.95 39.62 8.05 39.62 7.90L39.62 7.42C39.62 7.28 39.65 7.21 39.44 7.22C39.03 7.25 38.08 7.31 37.88 7.32C37.69 7.34 37.70 7.35 37.66 7.46C37.63 7.53 37.58 7.67 37.58 7.73Z"></path></g><!----><!----><g data-v-423bf9ae="" id="e3337f3b-6217-42db-b402-4c1ddeb8520f" fill="#ffffff" transform="matrix(5.714285714285714,0,0,5.714285714285714,-4.000014330659724,119.00000282696315)"><path d="M0.70 7.70C0.70 9.16 1.15 10.36 2.04 11.30C2.93 12.24 4.06 12.71 5.42 12.71C6.65 12.71 7.70 12.31 8.58 11.51L9.74 12.60L10.30 12.60L8.85 11.24C9.71 10.29 10.14 9.11 10.14 7.70C10.14 6.24 9.69 5.04 8.80 4.10C7.91 3.16 6.78 2.69 5.42 2.69C4.06 2.69 2.93 3.16 2.04 4.10C1.15 5.04 0.70 6.24 0.70 7.70ZM5.26 8.40L8.27 11.21C7.49 11.94 6.54 12.31 5.42 12.31C4.18 12.31 3.15 11.87 2.34 10.99C1.53 10.11 1.12 9.02 1.12 7.70C1.12 6.38 1.53 5.29 2.34 4.41C3.15 3.53 4.18 3.09 5.42 3.09C6.66 3.09 7.69 3.53 8.50 4.41C9.31 5.29 9.72 6.38 9.72 7.70C9.72 8.99 9.32 10.07 8.54 10.95L5.82 8.40ZM18.98 2.80L18.98 9.24C18.98 10.29 19.27 11.13 19.84 11.77C20.41 12.42 21.16 12.74 22.11 12.74C23.05 12.74 23.80 12.42 24.37 11.77C24.94 11.13 25.23 10.29 25.23 9.24L25.23 2.80L24.81 2.80L24.81 9.24C24.81 10.17 24.55 10.92 24.05 11.47C23.54 12.02 22.89 12.29 22.11 12.29C21.32 12.29 20.68 12.02 20.17 11.47C19.66 10.92 19.40 10.17 19.40 9.24L19.40 2.80ZM37.62 2.45L33.35 12.60L33.84 12.60L35.11 9.52L40.12 9.52L41.40 12.60L41.89 12.60ZM37.62 3.50L39.93 9.07L35.31 9.07ZM50.36 2.80L50.36 12.60L54.84 12.60L54.84 12.19L50.78 12.19L50.78 2.80ZM63.31 2.80L63.31 12.60L63.73 12.60L63.73 2.80ZM72.20 3.21L74.72 3.21L74.72 12.60L75.14 12.60L75.14 3.21L77.66 3.21L77.66 2.80L72.20 2.80ZM91.57 2.80L88.56 8.16L85.68 2.80L85.15 2.80L88.34 8.62L88.34 12.60L88.79 12.60L88.79 8.61L92.11 2.80ZM115.00 2.45L110.73 12.60L111.22 12.60L112.49 9.52L117.50 9.52L118.78 12.60L119.27 12.60ZM115.00 3.50L117.31 9.07L112.69 9.07ZM127.41 9.74L127.04 9.90C127.66 11.77 128.71 12.71 130.19 12.71C131.10 12.71 131.79 12.45 132.26 11.93C132.72 11.41 132.96 10.77 132.96 10.01C132.96 9.66 132.90 9.35 132.78 9.06C132.67 8.78 132.54 8.55 132.39 8.37C132.25 8.19 132.04 8.02 131.78 7.86C131.52 7.70 131.31 7.58 131.15 7.50C130.98 7.43 130.76 7.34 130.48 7.22C130.44 7.21 130.33 7.16 130.13 7.08C129.93 7.01 129.81 6.96 129.77 6.94C129.72 6.91 129.61 6.87 129.44 6.80C129.28 6.73 129.17 6.67 129.12 6.64C129.06 6.60 128.97 6.54 128.84 6.45C128.71 6.37 128.62 6.30 128.58 6.24C128.53 6.18 128.46 6.10 128.38 6.00C128.30 5.90 128.24 5.80 128.21 5.70C128.17 5.61 128.14 5.50 128.11 5.38C128.09 5.25 128.07 5.12 128.07 4.98C128.07 4.41 128.27 3.95 128.67 3.62C129.06 3.29 129.56 3.12 130.14 3.12C131.27 3.12 132.06 3.77 132.50 5.07L132.90 4.90C132.70 4.23 132.36 3.69 131.89 3.29C131.43 2.89 130.85 2.69 130.16 2.69C129.47 2.69 128.87 2.90 128.36 3.33C127.85 3.76 127.60 4.33 127.60 5.04C127.60 5.39 127.67 5.71 127.81 5.99C127.96 6.27 128.17 6.51 128.46 6.71C128.74 6.91 129.00 7.07 129.23 7.17C129.46 7.28 129.75 7.41 130.12 7.55C130.40 7.65 130.59 7.72 130.69 7.77C130.79 7.82 130.97 7.90 131.21 8.02C131.45 8.13 131.63 8.24 131.73 8.34C131.84 8.45 131.97 8.58 132.11 8.75C132.26 8.92 132.36 9.11 132.41 9.32C132.47 9.54 132.50 9.78 132.50 10.05C132.50 10.72 132.31 11.27 131.93 11.68C131.55 12.09 130.98 12.29 130.23 12.29C129.00 12.29 128.06 11.44 127.41 9.74ZM141.67 9.74L141.29 9.90C141.91 11.77 142.96 12.71 144.44 12.71C145.35 12.71 146.04 12.45 146.51 11.93C146.98 11.41 147.21 10.77 147.21 10.01C147.21 9.66 147.15 9.35 147.03 9.06C146.92 8.78 146.79 8.55 146.64 8.37C146.50 8.19 146.30 8.02 146.03 7.86C145.77 7.70 145.56 7.58 145.40 7.50C145.23 7.43 145.01 7.34 144.73 7.22C144.69 7.21 144.58 7.16 144.38 7.08C144.19 7.01 144.06 6.96 144.02 6.94C143.97 6.91 143.86 6.87 143.70 6.80C143.53 6.73 143.42 6.67 143.37 6.64C143.32 6.60 143.22 6.54 143.09 6.45C142.96 6.37 142.87 6.30 142.83 6.24C142.78 6.18 142.72 6.10 142.63 6.00C142.55 5.90 142.49 5.80 142.46 5.70C142.42 5.61 142.39 5.50 142.37 5.38C142.34 5.25 142.32 5.12 142.32 4.98C142.32 4.41 142.52 3.95 142.92 3.62C143.32 3.29 143.81 3.12 144.40 3.12C145.53 3.12 146.31 3.77 146.75 5.07L147.15 4.90C146.95 4.23 146.61 3.69 146.15 3.29C145.68 2.89 145.10 2.69 144.41 2.69C143.72 2.69 143.12 2.90 142.61 3.33C142.10 3.76 141.85 4.33 141.85 5.04C141.85 5.39 141.92 5.71 142.06 5.99C142.21 6.27 142.42 6.51 142.71 6.71C142.99 6.91 143.25 7.07 143.48 7.17C143.71 7.28 144.00 7.41 144.37 7.55C144.65 7.65 144.84 7.72 144.94 7.77C145.04 7.82 145.22 7.90 145.46 8.02C145.70 8.13 145.88 8.24 145.99 8.34C146.09 8.45 146.22 8.58 146.36 8.75C146.51 8.92 146.61 9.11 146.66 9.32C146.72 9.54 146.75 9.78 146.75 10.05C146.75 10.72 146.56 11.27 146.18 11.68C145.80 12.09 145.24 12.29 144.48 12.29C143.25 12.29 142.31 11.44 141.67 9.74ZM156.17 2.80L156.17 9.24C156.17 10.29 156.45 11.13 157.02 11.77C157.59 12.42 158.35 12.74 159.29 12.74C160.23 12.74 160.99 12.42 161.56 11.77C162.13 11.13 162.41 10.29 162.41 9.24L162.41 2.80L161.99 2.80L161.99 9.24C161.99 10.17 161.74 10.92 161.23 11.47C160.72 12.02 160.08 12.29 159.29 12.29C158.51 12.29 157.86 12.02 157.35 11.47C156.84 10.92 156.59 10.17 156.59 9.24L156.59 2.80ZM172.28 2.80ZM171.86 2.80L171.86 12.60L172.28 12.60L172.28 8.48L173.84 8.48L176.96 12.60L177.51 12.60L174.31 8.47C175.21 8.41 175.93 8.15 176.46 7.67C177.00 7.20 177.27 6.52 177.27 5.64C177.27 4.71 176.96 4.00 176.36 3.52C175.75 3.04 174.95 2.80 173.96 2.80ZM172.28 3.21L173.96 3.21C174.83 3.21 175.53 3.41 176.05 3.83C176.57 4.24 176.83 4.85 176.83 5.64C176.83 6.44 176.57 7.04 176.05 7.45C175.53 7.87 174.83 8.08 173.96 8.08L172.28 8.08ZM189.13 2.45L184.86 12.60L185.35 12.60L186.62 9.52L191.63 9.52L192.91 12.60L193.40 12.60ZM189.13 3.50L191.44 9.07L186.82 9.07ZM208.80 2.80L208.80 11.79L201.31 2.45L201.31 12.60L201.73 12.60L201.73 3.61L209.22 12.95L209.22 2.80ZM218.08 7.70C218.08 6.33 218.46 5.22 219.22 4.38C219.98 3.53 220.99 3.11 222.24 3.11C223.43 3.11 224.48 3.54 225.39 4.41L225.39 3.81C224.54 3.06 223.49 2.69 222.24 2.69C220.88 2.69 219.77 3.16 218.91 4.09C218.05 5.03 217.62 6.23 217.62 7.70C217.62 9.17 218.05 10.37 218.91 11.30C219.77 12.24 220.88 12.71 222.24 12.71C223.49 12.71 224.54 12.34 225.39 11.59L225.39 11.03C224.52 11.87 223.47 12.29 222.24 12.29C220.99 12.29 219.98 11.87 219.22 11.03C218.46 10.18 218.08 9.07 218.08 7.70ZM235.19 7.48L239.53 7.48L239.53 7.08L235.19 7.08L235.19 3.21L239.81 3.21L239.81 2.80L234.77 2.80L234.77 12.60L239.81 12.60L239.81 12.19L235.19 12.19ZM260.81 7.48L265.15 7.48L265.15 7.08L260.81 7.08L260.81 3.21L265.43 3.21L265.43 2.80L260.39 2.80L260.39 12.60L265.43 12.60L265.43 12.19L260.81 12.19ZM279.82 2.80L277.23 7.04L274.69 2.80L274.18 2.80L276.96 7.46L273.83 12.60L274.34 12.60L277.21 7.90L280.03 12.60L280.55 12.60L277.48 7.46L280.34 2.80ZM288.15 7.70C288.15 6.33 288.53 5.22 289.29 4.38C290.05 3.53 291.06 3.11 292.31 3.11C293.50 3.11 294.55 3.54 295.46 4.41L295.46 3.81C294.61 3.06 293.56 2.69 292.31 2.69C290.95 2.69 289.84 3.16 288.98 4.09C288.12 5.03 287.69 6.23 287.69 7.70C287.69 9.17 288.12 10.37 288.98 11.30C289.84 12.24 290.95 12.71 292.31 12.71C293.56 12.71 294.61 12.34 295.46 11.59L295.46 11.03C294.59 11.87 293.54 12.29 292.31 12.29C291.06 12.29 290.05 11.87 289.29 11.03C288.53 10.18 288.15 9.07 288.15 7.70ZM305.26 7.48L309.60 7.48L309.60 7.08L305.26 7.08L305.26 3.21L309.88 3.21L309.88 2.80L304.84 2.80L304.84 12.60L309.88 12.60L309.88 12.19L305.26 12.19ZM319.26 2.80L319.26 12.60L323.74 12.60L323.74 12.19L319.68 12.19L319.68 2.80ZM332.28 2.80L332.28 12.60L336.76 12.60L336.76 12.19L332.70 12.19L332.70 2.80ZM345.72 7.48L350.06 7.48L350.06 7.08L345.72 7.08L345.72 3.21L350.34 3.21L350.34 2.80L345.30 2.80L345.30 12.60L350.34 12.60L350.34 12.19L345.72 12.19ZM366.65 2.80L366.65 11.79L359.16 2.45L359.16 12.60L359.58 12.60L359.58 3.61L367.07 12.95L367.07 2.80ZM375.93 7.70C375.93 6.33 376.31 5.22 377.07 4.38C377.83 3.53 378.84 3.11 380.09 3.11C381.28 3.11 382.33 3.54 383.24 4.41L383.24 3.81C382.39 3.06 381.34 2.69 380.09 2.69C378.73 2.69 377.62 3.16 376.76 4.09C375.90 5.03 375.47 6.23 375.47 7.70C375.47 9.17 375.90 10.37 376.76 11.30C377.62 12.24 378.73 12.71 380.09 12.71C381.34 12.71 382.39 12.34 383.24 11.59L383.24 11.03C382.37 11.87 381.32 12.29 380.09 12.29C378.84 12.29 377.83 11.87 377.07 11.03C376.31 10.18 375.93 9.07 375.93 7.70ZM393.04 7.48L397.38 7.48L397.38 7.08L393.04 7.08L393.04 3.21L397.66 3.21L397.66 2.80L392.62 2.80L392.62 12.60L397.66 12.60L397.66 12.19L393.04 12.19Z"></path></g></svg>